<?xml version="1.0" encoding="iso-8859-1"?>
<!-- Generator: Adobe Illustrator 19.0.0, SVG Export Plug-In . SVG Version: 6.00 Build 0)  -->
<svg version="1.1" id="Layer_1" xmlns="http://www.w3.org/2000/svg" xmlns:xlink="http://www.w3.org/1999/xlink" x="0px" y="0px" width="30px" height="30px"
	 viewBox="0 0 512 512" style="enable-background:new 0 0 512 512;" xml:space="preserve">
<g>
	<g>
		<path fill="#14fdfd" d="M447.183,94.396H36.815C17.129,94.396,0,110.087,0,129.777v240.858c0,19.682,17.12,36.017,36.797,36.017h312.261
			c4.927,0,8.922-3.99,8.922-8.922s-3.995-8.922-8.922-8.922H36.797c-9.836,0-18.954-8.329-18.954-18.174V129.777
			c0-9.845,9.126-17.538,18.972-17.538h410.368c9.845,0,16.741,7.693,16.741,17.538v136.499c0,4.931,3.995,8.922,8.922,8.922
			c4.927,0,8.922-3.99,8.922-8.922V129.777C481.768,110.087,466.869,94.396,447.183,94.396z"/>
	</g>
</g>
<g>
	<g>
		<path fill="#14fdfd" d="M484.151,351.903l25.236-25.231c1.673-1.673,2.614-3.938,2.614-6.308c0-2.37-0.941-4.635-2.614-6.308l-25.236-25.231
			c-3.485-3.485-9.131-3.485-12.616,0l-25.236,25.231l-25.236-25.231c-3.485-3.485-9.131-3.485-12.616,0l-25.231,25.231
			c-1.673,1.673-2.614,3.938-2.614,6.308c0,2.37,0.941,4.635,2.614,6.308l25.236,25.231l-25.236,25.24
			c-3.485,3.485-3.485,9.131,0,12.616l25.231,25.232c3.485,3.485,9.131,3.485,12.616,0l25.236-25.232l25.236,25.232
			c1.743,1.742,4.025,2.614,6.308,2.614c2.283,0,4.565-0.871,6.308-2.614l25.236-25.232c1.673-1.673,2.614-3.938,2.614-6.308
			c0-2.37-0.941-4.635-2.614-6.308L484.151,351.903z M477.842,396.067l-25.236-25.231c-1.743-1.742-4.025-2.614-6.308-2.614
			c-2.283,0-4.565,0.871-6.308,2.614l-25.236,25.231l-12.616-12.616l25.236-25.24c1.673-1.673,2.614-3.938,2.614-6.308
			s-0.941-4.635-2.614-6.308l-25.236-25.231l12.616-12.616l25.236,25.232c3.485,3.485,9.131,3.485,12.616,0l25.236-25.232
			l12.616,12.616l-25.232,25.231c-1.673,1.673-2.614,3.938-2.614,6.308s0.941,4.635,2.614,6.308l25.236,25.24L477.842,396.067z"/>
	</g>
</g>
<g>
	<g>
		<path fill="#14fdfd" d="M354.717,149.18c-2.413-1.655-5.776-2.021-8.512-0.967c-0.113,0.052-11.601,4.347-26.338,2.091
			c-2.875-0.427-6.996-2.501-10.921-4.504c-6.534-3.337-13.97-7.118-22.169-7.118c-18.68,0-29.072,3.049-33.65,9.897
			c-1.742,2.601-2.849,5.323-2.729,7.678c-0.002,0.091-0.592,0.176-0.592,0.268v128.446c-8.922-7.711-24.018-12.465-39.59-12.465
			c-31.975,0-57.712,20.013-57.712,44.608c0,24.595,25.597,44.608,57.572,44.608s57.572-20.013,57.572-44.608V215.18
			c4.461-2.154,11.335-5.132,18.205-5.142c1.359,0.226,5.554,2.3,8.412,3.807c6.229,3.293,14.123,7.397,22.317,8.669
			c3.123,0.488,6.282,0.688,9.261,0.688c14.271,0,26.534-4.626,27.126-4.87c3.385-1.351,6.125-4.635,6.125-8.277v-53.53
			C359.095,153.589,357.139,150.844,354.717,149.18z M210.773,343.879c-21.764,0-40.147-12.259-40.147-26.765
			c0-14.506,18.383-26.765,40.147-26.765c21.764,0,40.147,12.259,40.147,26.765C250.921,331.62,232.537,343.879,210.773,343.879z
			 M341.252,203.477c-6.691,1.281-13.47,2.622-21.298,1.403c-5.241-0.81-11.514-3.999-16.828-6.813
			c-6.19-3.267-10.716-5.855-15.77-5.855c-6.521,0-13.016,1.525-17.477,3.415v-37.194c2.23-0.767,6.757-1.908,17.355-1.908
			c3.908,0,8.809,2.622,13.783,5.167c5.197,2.649,10.934,5.393,16.689,6.264c9.009,1.359,16.854,0.871,23.546-0.096V203.477z"/>
	</g>
</g>
<g>
</g>
<g>
</g>
<g>
</g>
<g>
</g>
<g>
</g>
<g>
</g>
<g>
</g>
<g>
</g>
<g>
</g>
<g>
</g>
<g>
</g>
<g>
</g>
<g>
</g>
<g>
</g>
<g>
</g>
</svg>
