<?xml version="1.0" encoding="iso-8859-1"?>
<!-- Generator: Adobe Illustrator 19.0.0, SVG Export Plug-In . SVG Version: 6.00 Build 0)  -->
<svg version="1.1" id="Layer_1" xmlns="http://www.w3.org/2000/svg" xmlns:xlink="http://www.w3.org/1999/xlink" x="0px" y="0px" width="30px" height="30px"
	 viewBox="0 0 512 512" style="enable-background:new 0 0 512 512;" xml:space="preserve">
<g>
	<g>
		<path fill="#210681" d="M457.248,96.356h-419.6C17.515,96.356,0,112.401,0,132.534v246.281c0,20.125,17.506,36.828,37.621,36.828h319.297
			c5.042,0,9.123-4.08,9.123-9.122c0-5.042-4.08-9.122-9.123-9.122H37.621c-10.058,0-19.376-8.517-19.376-18.583V132.534
			c0-10.067,9.336-17.933,19.403-17.933h419.6c10.067,0,17.122,7.866,17.122,17.933v155.065c0,5.042,4.08,9.122,9.123,9.122
			c5.042,0,9.122-4.08,9.122-9.122V132.534C492.616,112.401,477.382,96.356,457.248,96.356z"/>
	</g>
</g>
<g>
	<g>
		<path fill="#210681" d="M362.691,152.338c-2.512-1.702-5.933-2.049-8.74-0.935c-0.116,0.045-11.795,4.41-26.886,2.12
			c-2.94-0.437-7.145-2.557-11.163-4.606c-6.682-3.412-14.285-7.278-22.668-7.278c-19.109,0-29.726,3.118-34.412,10.12
			c-1.775,2.664-2.906,5.445-2.786,7.853c-0.002,0.094-0.606,0.178-0.606,0.272v131.339c-9.122-7.884-24.559-12.746-40.481-12.746
			c-32.695,0-59.011,20.463-59.011,45.613c0,25.149,26.174,45.613,58.869,45.613c32.695,0,58.869-20.463,58.869-45.613V219.864
			c4.561-2.203,11.59-5.252,18.61-5.263c1.39,0.232,5.675,2.352,8.597,3.893c6.379,3.368,14.45,7.563,22.833,8.864
			c3.189,0.499,6.423,0.704,9.47,0.704c14.592,0,27.127-4.73,27.733-4.98c3.456-1.381,6.263-4.739,6.263-8.463v-54.735
			C367.181,156.864,365.185,154.04,362.691,152.338z M215.519,351.457c-22.254,0-41.051-12.535-41.051-27.367
			c0-14.833,18.797-27.368,41.051-27.368c22.254,0,41.051,12.535,41.051,27.368C256.571,338.922,237.773,351.457,215.519,351.457z
			 M348.936,207.893c-6.842,1.31-13.773,2.69-21.782,1.434c-5.354-0.829-11.768-4.089-17.212-6.967
			c-6.325-3.341-10.949-5.987-16.116-5.987c-6.664,0-13.31,1.559-17.871,3.492v-38.031c2.281-0.784,6.913-1.951,17.746-1.951
			c3.991,0,9.007,2.69,14.093,5.283c5.319,2.717,11.181,5.514,17.06,6.405c9.221,1.372,17.238,0.882,24.08-0.098V207.893z"/>
	</g>
</g>
<g>
	<g>
		<path fill="#210681" d="M508.936,317.274c-3.769-3.359-9.532-3.02-12.873,0.757l-67.403,75.822l-29.782-22.325
			c-4.027-3.02-9.746-2.218-12.766,1.826c-3.029,4.027-2.209,9.746,1.826,12.766l36.49,27.368c1.63,1.229,3.555,1.826,5.47,1.826
			c2.521,0,5.024-1.043,6.815-3.065l72.98-82.103C513.043,326.388,512.705,320.615,508.936,317.274z"/>
	</g>
</g>
<g>
</g>
<g>
</g>
<g>
</g>
<g>
</g>
<g>
</g>
<g>
</g>
<g>
</g>
<g>
</g>
<g>
</g>
<g>
</g>
<g>
</g>
<g>
</g>
<g>
</g>
<g>
</g>
<g>
</g>
</svg>
