<?xml version="1.0" encoding="iso-8859-1"?>
<!-- Generator: Adobe Illustrator 19.0.0, SVG Export Plug-In . SVG Version: 6.00 Build 0)  -->
<svg version="1.1" id="Layer_1" xmlns="http://www.w3.org/2000/svg" xmlns:xlink="http://www.w3.org/1999/xlink" x="0px" y="0px" width="30px" height="30px"
	 viewBox="0 0 512 512" style="enable-background:new 0 0 512 512;" xml:space="preserve">
<g>
	<g>
		<path fill="#210681" d="M441.516,79.829H36.348C16.912,79.829,0,95.321,0,114.762v237.806C0,372,16.903,388.129,36.331,388.129h246.644
			c4.865,0,8.809-3.94,8.809-8.809s-3.944-8.809-8.809-8.809H36.331c-9.712,0-18.714-8.224-18.714-17.944V114.762
			c0-9.721,9.011-17.316,18.731-17.316h405.168c9.72,0,16.529,7.596,16.529,17.316v134.769c0,4.869,3.944,8.809,8.809,8.809
			c4.865,0,8.809-3.94,8.809-8.809V114.762C475.663,95.321,460.953,79.829,441.516,79.829z"/>
	</g>
</g>
<g>
	<g>
		<path fill="#210681" d="M510.45,418.055l-96.894-140.937c-3.286-4.783-11.234-4.783-14.521,0l-96.894,140.937
			c-1.854,2.693-2.06,6.353-0.538,9.252c1.527,2.89,4.525,4.865,7.798,4.865h193.788c3.273,0,6.271-1.974,7.798-4.865
			C512.51,424.408,512.303,420.748,510.45,418.055z M326.145,414.554l80.15-116.584l80.15,116.584H326.145z"/>
	</g>
</g>
<g>
	<g>
		<path fill="#210681" d="M350.222,133.919c-2.387-1.634-5.695-1.996-8.404-0.955c-0.116,0.052-11.458,4.292-26.004,2.065
			c-2.839-0.422-6.907-2.469-10.783-4.447c-6.452-3.295-13.793-7.028-21.888-7.028c-18.443,0-28.703,3.011-33.224,9.772
			c-1.719,2.568-2.813,5.256-2.695,7.581c-0.002,0.09-0.585,0.174-0.585,0.264v126.819c-8.809-7.613-23.713-12.307-39.088-12.307
			c-31.57,0-56.98,19.759-56.98,44.043c0,24.284,25.273,44.043,56.843,44.043s56.843-19.759,56.843-44.043V199.082
			c4.404-2.127,11.191-5.067,17.974-5.077c1.342,0.224,5.484,2.271,8.305,3.759c6.151,3.252,13.944,7.303,22.034,8.559
			c3.084,0.482,6.202,0.68,9.144,0.68c14.09,0,26.198-4.568,26.783-4.809c3.342-1.333,6.047-4.576,6.047-8.172V141.17
			C354.545,138.271,352.614,135.562,350.222,133.919z M208.102,326.15c-21.488,0-39.639-12.103-39.639-26.426
			s18.151-26.426,39.639-26.426s39.639,12.103,39.639,26.426S229.59,326.15,208.102,326.15z M336.928,187.527
			c-6.606,1.264-13.29,2.589-21.028,1.385c-5.174-0.8-11.368-3.948-16.615-6.727c-6.112-3.226-10.58-5.781-15.57-5.781
			c-6.439,0-12.852,1.505-17.256,3.372v-36.722h0c2.202-0.757,6.671-1.884,17.135-1.884c3.858,0,8.697,2.589,13.609,5.101
			c5.131,2.615,10.796,5.325,16.478,6.185c8.899,1.342,16.641,0.86,23.247-0.095V187.527z"/>
	</g>
</g>
<g>
	<g>
		<path d="M405.194,317.342c-4.865,0-8.809,3.94-8.809,8.809v44.043c0,4.869,3.944,8.809,8.809,8.809
			c4.865,0,8.809-3.94,8.809-8.809V326.15C414.003,321.281,410.059,317.342,405.194,317.342z"/>
	</g>
</g>
<g>
</g>
<g>
</g>
<g>
</g>
<g>
</g>
<g>
</g>
<g>
</g>
<g>
</g>
<g>
</g>
<g>
</g>
<g>
</g>
<g>
</g>
<g>
</g>
<g>
</g>
<g>
</g>
<g>
</g>
</svg>
