<svg xmlns="http://www.w3.org/2000/svg" xmlns:xlink="http://www.w3.org/1999/xlink" height="38px" width="140px" viewBox="0 0 679.17 210.69"><defs><style>.cls-1{fill:none;}.cls-2{clip-path:url(#clip-path);}.cls-3{fill-rule:evenodd;}</style><clipPath id="clip-path" transform="translate(-25.12 -38.43)"><rect class="cls-1" width="722.22" height="277.78"/></clipPath></defs><title>volume-wave-3</title><g id="Layer_2" data-name="Layer 2"><g id="Layer_2-2" data-name="Layer 2"><g class="cls-2"><path fill="#14fdfd" d="M318.76,159.59a101.52,101.52,0,0,1-18.55-1.7c-16.6-3.07-27.8-11.92-39.65-21.28a203.56,203.56,0,0,0-16.44-12.09c-25.42-16.28-50.52-19.65-72.59-9.76-5.06,2.27-9.83,4.91-14.45,7.48-11.74,6.51-22.84,12.65-37.46,12.41-18.94-.34-27.51-11.09-37.43-23.55C79,107.15,75.78,103.07,72,99c-2.7-2.87-26.88-27.74-44.23-17l-.62-1C45.3,69.82,70.08,95.3,72.85,98.24c3.82,4.06,7.09,8.17,10.25,12.13,9.74,12.23,18.16,22.78,36.55,23.1,14.27.25,25.27-5.82,36.86-12.26,4.64-2.57,9.44-5.23,14.54-7.52,22.45-10.06,47.94-6.65,73.7,9.84,6,3.81,11.33,8.06,16.53,12.16,11.74,9.27,22.83,18,39.14,21.05,31.19,5.77,57.95-4.32,80-14.94,18.74-9,36.93-20.52,54.53-31.65C481.69,80.6,525.82,52.7,581.78,65c48.37,10.62,78.94,33.22,112.77,83.4l-1,.65c-33.64-49.89-64-72.36-112.05-82.91-55.5-12.18-99.43,15.6-145.94,45-17.63,11.15-35.85,22.67-54.65,31.72C363.2,151.4,342.43,159.59,318.76,159.59Z" transform="translate(-25.12 -38.43)"/><path fill="#14fdfd" d="M690.49,174.06C658.62,127.28,625,102.84,578.07,92.33a126.41,126.41,0,0,0-62,1.09c-23.42,6.41-46.84,17.83-69.49,28.87-21.51,10.49-43.75,21.34-65.81,27.77-2,.59-4.1,1.15-6.36,1.72-27.14,6.93-50.55,6.29-75.93-2.06-12.72-4.19-22.55-11.14-32.95-18.49-4.72-3.35-9.61-6.8-14.76-9.95-3-1.82-5.53-3.26-8-4.54-25.38-13.14-49.83-14.57-72.65-4.25-5.05,2.29-9.91,4.94-14.61,7.5-11.68,6.36-22.71,12.36-36.68,13.43q-1.95.15-3.78.15c-18,0-27.18-10.55-38.65-23.68-1.78-2-3.61-4.14-5.54-6.28C63.08,95,44.9,74.91,28.55,82.72l-.5-1.06c17.14-8.18,35.73,12.39,43.67,21.17,1.93,2.14,3.77,4.25,5.55,6.28,12,13.78,21.54,24.66,41.46,23.14,13.72-1.05,24.64-7,36.21-13.29,4.72-2.57,9.6-5.23,14.69-7.53,23.16-10.48,48-9,73.67,4.27,2.48,1.29,5,2.74,8.06,4.58,5.19,3.17,10.09,6.64,14.83,10,10.33,7.3,20.08,14.2,32.64,18.33,25.49,8.4,48,9,75.28,2.05,2.24-.57,4.31-1.13,6.32-1.71,21.95-6.41,44.15-17.23,65.62-27.7,22.7-11.07,46.17-22.51,69.69-28.95,20.1-5.55,41.16-5.92,62.59-1.1,47.24,10.58,81.08,35.16,113.13,82.21Z" transform="translate(-25.12 -38.43)"/><path fill="#14fdfd" d="M687.4,199.08c-30.53-44.34-66.36-69.93-112.78-80.54-21.53-5-43.47-5-61.76-.12-17.23,4.53-35.21,11.35-52.6,17.94-28.49,10.8-57.95,22-86.05,24-2,.14-4.12.24-6.38.29-26.21.63-47.38-7.2-71.12-19.15-8.23-4.15-15.76-9.25-23-14.18-7.55-5.11-15.36-10.4-24-14.64-3.07-1.51-5.78-2.74-8.3-3.76-24.63-9.95-49.09-9.52-72.7,1.27-5.13,2.34-10.14,5-15,7.6-11,5.89-22.46,12-35.69,14.36-22,4-33.43-6.92-48.32-24-1-1.14-2.07-2.42-3.2-3.78-8.78-10.49-22-26.33-37.17-21.06L29,82.25c15.89-5.54,29.47,10.67,38.44,21.41,1.14,1.35,2.2,2.62,3.19,3.76C85.2,124.19,96.39,134.9,117.81,131c13.05-2.35,24.39-8.4,35.35-14.24,4.86-2.6,9.89-5.28,15.05-7.64,23.92-10.93,48.69-11.36,73.63-1.28,2.54,1,5.28,2.26,8.37,3.79,8.7,4.28,16.54,9.59,24.12,14.72,7.25,4.91,14.74,10,22.91,14.1,23.58,11.87,44.59,19.64,70.56,19,2.25-.05,4.32-.14,6.32-.29,27.93-2.06,57.31-13.2,85.73-24,17.41-6.6,35.42-13.42,52.71-18,18.47-4.93,40.61-4.88,62.33.12,46.71,10.68,82.77,36.42,113.47,81Z" transform="translate(-25.12 -38.43)"/><path fill="#14fdfd" d="M684.31,224.1c-29.18-41.92-67.25-68.61-113.14-79.35-22.07-5.19-44.49-5.68-61.5-1.34-11.22,2.84-22.66,6.3-34.77,10C439,164.27,401.78,175.54,367.66,170.7c-2.08-.29-4.23-.68-6.4-1.14-23.1-4.88-41.06-17.92-60.07-31.72l-6.23-4.5c-2.81-2-5.62-4.11-8.34-6.13-11.6-8.61-23.59-17.51-38-23.07-3.07-1.18-5.88-2.15-8.59-3C216,94,192.84,96.16,167.29,108c-5.38,2.49-10.75,5.28-15.93,8-10.74,5.59-21.85,11.38-34.14,15-19.21,5.66-32.85.56-48.67-18.19-1.83-2.18-3.7-4.71-5.69-7.4C54.72,94.34,44.58,80.63,30.12,84l-.27-1.14c15.22-3.53,25.61,10.53,33.95,21.83,2,2.67,3.84,5.2,5.65,7.34,15.46,18.34,28.77,23.33,47.44,17.82,12.18-3.59,23.24-9.35,33.93-14.92,5.2-2.71,10.57-5.52,16-8C192.63,95,216,92.8,240.38,100.06c2.74.81,5.58,1.79,8.68,3,14.54,5.61,26.6,14.56,38.26,23.22,2.72,2,5.52,4.1,8.33,6.12l6.23,4.5c18.9,13.73,36.76,26.69,59.62,31.52,2.15.46,4.28.84,6.33,1.14,33.85,4.79,70.9-6.43,106.73-17.29,12.12-3.67,23.57-7.14,34.82-10,17.19-4.39,39.81-3.9,62.06,1.34,46.18,10.8,84.48,37.65,113.83,79.81Z" transform="translate(-25.12 -38.43)"/><path fill="#14fdfd" d="M681.22,249.12c-55.89-79.36-141.87-88.64-174.75-80.7-5.56,1.34-11.19,2.77-17.16,4.29C448,183.22,401.09,195.14,361.13,181c-22.75-8.06-39-25.36-54.68-42.09-16.65-17.75-33.87-36.11-58.86-43.33-39.8-11.51-69.59,3.67-101.12,19.74-9.64,4.91-19.59,10-30,14.4-19.73,8.35-35.3,4.42-49-12.37A111.27,111.27,0,0,1,60,106.55c-7.4-11.66-15.05-23.72-29.09-22l-.14-1.16c14.76-1.86,23,11.07,30.22,22.48a110.09,110.09,0,0,0,7.34,10.68c13.34,16.32,28.48,20.15,47.65,12,10.41-4.4,20.35-9.47,30-14.36,31.75-16.18,61.74-31.47,102-19.83,25.29,7.32,42.62,25.79,59.38,43.65,15.61,16.64,31.74,33.83,54.22,41.8,39.62,14,86.31,2.16,127.5-8.32,6-1.51,11.61-2.95,17.18-4.29,33.14-8,119.75,1.32,176,81.17Z" transform="translate(-25.12 -38.43)"/><path fill="#14fdfd" class="cls-3" d="M517.41,145.06q.27,10.41.54,20.34c.17,6.45.34,12.79.5,19l1-.47a14.22,14.22,0,0,1,.88-4.64,30.13,30.13,0,0,1,2.45-4.44,43.58,43.58,0,0,0,2.56-4.49,33.05,33.05,0,0,0,1.94-5,17,17,0,0,0,.64-5,20.42,20.42,0,0,0-.5-4.33,13,13,0,0,0,.82-5.35,23.74,23.74,0,0,0-.48-4.51,14.47,14.47,0,0,0-1.34-3.94c-.19,0-.38,0-.57,0a22.65,22.65,0,0,1,1.7,7.71,12.88,12.88,0,0,1-1.23,5.79,16.82,16.82,0,0,1-4,5.23,15.3,15.3,0,0,0-1.17,1.26l-1.21,1.37a6.47,6.47,0,0,1-.95.86c-.09-3.72-.19-7.49-.28-11.3s-.19-7.78-.29-11.75a8.66,8.66,0,0,0-1.37-4.54,10.8,10.8,0,0,0-3.47-3.42,9.68,9.68,0,0,0-4.41-1.52,5.22,5.22,0,0,0-3.65,1,4.42,4.42,0,0,0-1.53,3.64,9.53,9.53,0,0,0,1.9,5.23,11.56,11.56,0,0,0,4.11,3.61,8.12,8.12,0,0,0,4.32,1.07,4.2,4.2,0,0,0,3.1-1.49Zm2.06,29.86a13.47,13.47,0,0,1,1.21-6,56,56,0,0,1,3.59-6.38,27.11,27.11,0,0,0,2.74-5.1,16.72,16.72,0,0,1,.16,1.95,14.87,14.87,0,0,1-.64,4.47,19.32,19.32,0,0,1-1.74,4,30.57,30.57,0,0,1-2.4,3.61Q521,173.24,519.47,174.92Z" transform="translate(-25.12 -38.43)"/><path fill="#14fdfd" class="cls-3" d="M290.23,127.74c.07,2.86.14,5.66.22,8.38s.14,5.28.21,7.82l.41-.19a5.72,5.72,0,0,1,.37-1.91,12.66,12.66,0,0,1,1-1.83,17.13,17.13,0,0,0,1.06-1.85,14,14,0,0,0,.8-2,7,7,0,0,0,.26-2,8.45,8.45,0,0,0-.2-1.78,5.4,5.4,0,0,0,.33-2.21,9.78,9.78,0,0,0-.19-1.86,5.93,5.93,0,0,0-.56-1.62h-.23a9.42,9.42,0,0,1,.7,3.18,5.31,5.31,0,0,1-.51,2.38,6.78,6.78,0,0,1-1.66,2.16c-.11.1-.26.27-.48.52s-.38.44-.5.56a2.69,2.69,0,0,1-.39.36c0-1.54-.07-3.09-.11-4.66s-.08-3.21-.12-4.84a3.51,3.51,0,0,0-.57-1.87,4.38,4.38,0,0,0-1.43-1.41,3.9,3.9,0,0,0-1.81-.63,2.16,2.16,0,0,0-1.51.41,1.82,1.82,0,0,0-.63,1.5,3.94,3.94,0,0,0,.79,2.16,4.71,4.71,0,0,0,1.69,1.49,3.35,3.35,0,0,0,1.78.44,1.75,1.75,0,0,0,1.28-.62Zm.84,12.31a5.55,5.55,0,0,1,.5-2.47,24.63,24.63,0,0,1,1.48-2.63,10.56,10.56,0,0,0,1.13-2.1,6.44,6.44,0,0,1,.07.8,6,6,0,0,1-.27,1.84,8.07,8.07,0,0,1-.71,1.67,12,12,0,0,1-1,1.49C291.91,139.12,291.51,139.59,291.07,140.05Z" transform="translate(-25.12 -38.43)"/><path fill="#14fdfd" class="cls-3" d="M238.7,81q.11,4.29.22,8.38c.07,2.66.14,5.28.2,7.82l.42-.19a6,6,0,0,1,.36-1.91,11.87,11.87,0,0,1,1-1.83A14.64,14.64,0,0,0,242,91.38a14.09,14.09,0,0,0,.81-2,7,7,0,0,0,.26-2,7.94,7.94,0,0,0-.21-1.79,5.3,5.3,0,0,0,.34-2.2,9,9,0,0,0-.2-1.86,5.61,5.61,0,0,0-.55-1.62h-.23a9.42,9.42,0,0,1,.7,3.17,5.35,5.35,0,0,1-.51,2.39,6.89,6.89,0,0,1-1.66,2.16,5.7,5.7,0,0,0-.48.52c-.21.25-.38.44-.5.56a3.33,3.33,0,0,1-.39.36c0-1.54-.08-3.09-.11-4.66s-.08-3.21-.12-4.84a3.64,3.64,0,0,0-.57-1.88,4.35,4.35,0,0,0-1.43-1.4,3.9,3.9,0,0,0-1.82-.63,2.15,2.15,0,0,0-1.5.41,1.81,1.81,0,0,0-.63,1.5,4,4,0,0,0,.78,2.16,4.69,4.69,0,0,0,1.7,1.48,3.22,3.22,0,0,0,1.77.44A1.71,1.71,0,0,0,238.7,81Zm.84,12.31a5.55,5.55,0,0,1,.5-2.47,23.91,23.91,0,0,1,1.48-2.64,10.84,10.84,0,0,0,1.13-2.09,5.73,5.73,0,0,1-.2,2.64,8.31,8.31,0,0,1-.71,1.67,15.88,15.88,0,0,1-1,1.48C240.37,92.35,240,92.82,239.54,93.28Z" transform="translate(-25.12 -38.43)"/><path fill="#14fdfd" class="cls-3" d="M142.32,108.61c.07,2.85.14,5.65.22,8.38s.14,5.27.21,7.82l.41-.2a6,6,0,0,1,.36-1.91,12.87,12.87,0,0,1,1-1.83,16.22,16.22,0,0,0,1.06-1.85,14,14,0,0,0,.8-2,7.07,7.07,0,0,0,.26-2,7.92,7.92,0,0,0-.21-1.78,5.22,5.22,0,0,0,.34-2.21,9.6,9.6,0,0,0-.19-1.85,6,6,0,0,0-.56-1.63h-.23a9.47,9.47,0,0,1,.7,3.18A5.38,5.38,0,0,1,146,113a6.89,6.89,0,0,1-1.66,2.16,6.84,6.84,0,0,0-.48.51c-.21.25-.38.44-.5.57a2.57,2.57,0,0,1-.39.35c0-1.53-.08-3.09-.11-4.65s-.08-3.21-.12-4.85a3.63,3.63,0,0,0-.57-1.87,4.38,4.38,0,0,0-1.43-1.41,4.14,4.14,0,0,0-1.81-.63,2.16,2.16,0,0,0-1.51.42,1.79,1.79,0,0,0-.63,1.5,4,4,0,0,0,.78,2.15,4.82,4.82,0,0,0,1.7,1.49,3.26,3.26,0,0,0,1.78.44,1.74,1.74,0,0,0,1.28-.61Zm.84,12.31a5.56,5.56,0,0,1,.5-2.48,23.88,23.88,0,0,1,1.48-2.63,10.83,10.83,0,0,0,1.13-2.1,6.62,6.62,0,0,1,.07.8,6.37,6.37,0,0,1-.27,1.85,8.56,8.56,0,0,1-.71,1.67,14.12,14.12,0,0,1-1,1.48C144,120,143.6,120.45,143.16,120.92Z" transform="translate(-25.12 -38.43)"/><path fill="#14fdfd" class="cls-3" d="M47.84,72.21c.08,2.85.15,5.65.22,8.38s.14,5.27.21,7.82l.42-.2a5.74,5.74,0,0,1,.36-1.91,12.87,12.87,0,0,1,1-1.83,18.67,18.67,0,0,0,1-1.85,12.91,12.91,0,0,0,.8-2,6.74,6.74,0,0,0,.27-2A8.55,8.55,0,0,0,52,76.75a5.38,5.38,0,0,0,.34-2.21,10.69,10.69,0,0,0-.2-1.86,5.93,5.93,0,0,0-.55-1.62h-.24A9.27,9.27,0,0,1,52,74.25a5.38,5.38,0,0,1-.51,2.39,7,7,0,0,1-1.66,2.15c-.11.11-.27.27-.48.52l-.5.56a2.64,2.64,0,0,1-.39.36c0-1.53-.08-3.09-.12-4.66s-.08-3.2-.11-4.84a3.63,3.63,0,0,0-.57-1.87,4.48,4.48,0,0,0-1.43-1.41,4,4,0,0,0-1.82-.63,2.13,2.13,0,0,0-1.5.41,1.83,1.83,0,0,0-.63,1.51,3.85,3.85,0,0,0,.78,2.15,4.82,4.82,0,0,0,1.7,1.49,3.31,3.31,0,0,0,1.77.44,1.76,1.76,0,0,0,1.28-.61Zm.85,12.31a5.56,5.56,0,0,1,.5-2.48,22.34,22.34,0,0,1,1.48-2.63,11.44,11.44,0,0,0,1.13-2.1,5.1,5.1,0,0,1,.06.8A5.94,5.94,0,0,1,51.6,80a7.59,7.59,0,0,1-.72,1.67,12,12,0,0,1-1,1.49Q49.34,83.82,48.69,84.52Z" transform="translate(-25.12 -38.43)"/><path fill="#14fdfd" class="cls-3" d="M30.65,83.13c.08,2.85.15,5.65.22,8.38s.14,5.27.21,7.82l.42-.2a5.74,5.74,0,0,1,.36-1.91,12.87,12.87,0,0,1,1-1.83,17.6,17.6,0,0,0,1.05-1.85,12.91,12.91,0,0,0,.8-2,6.74,6.74,0,0,0,.27-2,8.55,8.55,0,0,0-.21-1.78,5.38,5.38,0,0,0,.34-2.21,10.47,10.47,0,0,0-.2-1.85A5.88,5.88,0,0,0,34.37,82h-.24a9.27,9.27,0,0,1,.71,3.18,5.52,5.52,0,0,1-.51,2.39,7,7,0,0,1-1.66,2.15c-.11.11-.27.28-.48.52l-.5.57a3.25,3.25,0,0,1-.39.35c0-1.53-.08-3.09-.12-4.65s-.08-3.21-.11-4.85a3.63,3.63,0,0,0-.57-1.87,4.48,4.48,0,0,0-1.43-1.41,4.14,4.14,0,0,0-1.82-.63,2.09,2.09,0,0,0-1.5.42,1.79,1.79,0,0,0-.63,1.5,3.8,3.8,0,0,0,.78,2.15,4.82,4.82,0,0,0,1.7,1.49,3.31,3.31,0,0,0,1.77.44,1.73,1.73,0,0,0,1.28-.61Zm.85,12.31A5.56,5.56,0,0,1,32,93a22.34,22.34,0,0,1,1.48-2.63,11.44,11.44,0,0,0,1.13-2.1,6.67,6.67,0,0,1,.06.8,6,6,0,0,1-.26,1.85,8,8,0,0,1-.72,1.67,12.71,12.71,0,0,1-1,1.48Q32.14,94.74,31.5,95.44Z" transform="translate(-25.12 -38.43)"/><path fill="#14fdfd" class="cls-3" d="M112.29,131.41q.12,4.29.22,8.38c.07,2.66.14,5.28.21,7.82l.42-.19a5.81,5.81,0,0,1,.36-1.92,12.33,12.33,0,0,1,1-1.82,17.62,17.62,0,0,0,1-1.86,12.91,12.91,0,0,0,.8-2,6.63,6.63,0,0,0,.27-2,8.56,8.56,0,0,0-.21-1.79,5.3,5.3,0,0,0,.34-2.2,10.48,10.48,0,0,0-.2-1.86,6.12,6.12,0,0,0-.55-1.63h-.24a9.27,9.27,0,0,1,.71,3.18,5.49,5.49,0,0,1-.51,2.39,7,7,0,0,1-1.66,2.16,6.84,6.84,0,0,0-.48.51l-.5.57a2.57,2.57,0,0,1-.39.35q-.06-2.3-.12-4.65c0-1.59-.08-3.21-.12-4.85a3.53,3.53,0,0,0-.56-1.87,4.48,4.48,0,0,0-1.43-1.41,4,4,0,0,0-1.82-.62,2.09,2.09,0,0,0-1.5.41,1.81,1.81,0,0,0-.63,1.5,3.85,3.85,0,0,0,.78,2.16,4.85,4.85,0,0,0,1.69,1.48A3.28,3.28,0,0,0,111,132a1.69,1.69,0,0,0,1.28-.61Zm.85,12.31a5.56,5.56,0,0,1,.5-2.48,23.17,23.17,0,0,1,1.48-2.63,11.44,11.44,0,0,0,1.13-2.1,5.13,5.13,0,0,1,.06.81,6,6,0,0,1-.26,1.84,8,8,0,0,1-.72,1.67,12.71,12.71,0,0,1-1,1.48C114,142.79,113.57,143.25,113.14,143.72Z" transform="translate(-25.12 -38.43)"/><path fill="#14fdfd" class="cls-3" d="M270.23,92.85q.11,4.29.22,8.39c.06,2.66.14,5.27.2,7.81l.42-.19a6,6,0,0,1,.36-1.91,12.87,12.87,0,0,1,1-1.83,15.34,15.34,0,0,0,1.05-1.85,13.74,13.74,0,0,0,.81-2,7,7,0,0,0,.26-2,7.86,7.86,0,0,0-.21-1.78,5.38,5.38,0,0,0,.34-2.21,9,9,0,0,0-.2-1.86,5.61,5.61,0,0,0-.55-1.62h-.23a9.42,9.42,0,0,1,.7,3.18,5.38,5.38,0,0,1-.51,2.39,6.86,6.86,0,0,1-1.66,2.15c-.11.11-.27.27-.48.52s-.38.44-.5.56a2.64,2.64,0,0,1-.39.36c0-1.53-.08-3.09-.11-4.66s-.08-3.2-.12-4.84a3.6,3.6,0,0,0-.57-1.87,4.38,4.38,0,0,0-1.43-1.41,4,4,0,0,0-1.82-.63,2.15,2.15,0,0,0-1.5.41,1.83,1.83,0,0,0-.63,1.51,4,4,0,0,0,.78,2.15,4.82,4.82,0,0,0,1.7,1.49,3.31,3.31,0,0,0,1.77.44,1.77,1.77,0,0,0,1.29-.62Zm.84,12.31a5.55,5.55,0,0,1,.5-2.47,23.88,23.88,0,0,1,1.48-2.63,11.13,11.13,0,0,0,1.13-2.1,6.62,6.62,0,0,1,.07.8,6.3,6.3,0,0,1-.27,1.84,8.07,8.07,0,0,1-.71,1.67,13.34,13.34,0,0,1-1,1.49C271.9,104.23,271.5,104.7,271.07,105.16Z" transform="translate(-25.12 -38.43)"/><path fill="#14fdfd" class="cls-3" d="M206,75.33c.16,11,.6,16.17.76,27.24,0,2.56,5.83,3.31,7.64,2.09a1.45,1.45,0,0,0,.71-1.12,1.84,1.84,0,0,0-.75-1.34,4.81,4.81,0,0,0-1.8-.94,5.86,5.86,0,0,0-2.17-.27,3.83,3.83,0,0,0-1.89.56c-.14-10.13-.49-14.29-.64-24.35C207.32,76.37,206.58,76.09,206,75.33Z" transform="translate(-25.12 -38.43)"/><path fill="#14fdfd" class="cls-3" d="M176.8,76.08c.17,11,.6,16.17.76,27.24,0,2.56,5.83,3.31,7.64,2.09a1.42,1.42,0,0,0,.71-1.12,1.84,1.84,0,0,0-.75-1.34,4.66,4.66,0,0,0-1.8-.94,5.84,5.84,0,0,0-2.17-.27,3.86,3.86,0,0,0-1.89.56c-.14-10.13-.49-14.29-.63-24.36C178.09,77.12,177.35,76.84,176.8,76.08Z" transform="translate(-25.12 -38.43)"/><path fill="#14fdfd" class="cls-3" d="M161.31,103.2c.11,7.74.42,11.36.53,19.14,0,1.8,4.1,2.33,5.37,1.47a1,1,0,0,0,.5-.79,1.31,1.31,0,0,0-.53-.94,3.28,3.28,0,0,0-1.26-.66,4.29,4.29,0,0,0-1.53-.19,2.77,2.77,0,0,0-1.33.39c-.1-7.11-.34-10-.44-17.11C162.22,103.93,161.69,103.74,161.31,103.2Z" transform="translate(-25.12 -38.43)"/><path fill="#14fdfd" class="cls-3" d="M121.8,106.73c.11,7.74.42,11.36.53,19.14,0,1.8,4.09,2.33,5.37,1.47a1.07,1.07,0,0,0,.5-.79,1.31,1.31,0,0,0-.53-.94,3.33,3.33,0,0,0-1.27-.66,4,4,0,0,0-1.52-.19,2.74,2.74,0,0,0-1.33.39c-.1-7.11-.34-10-.44-17.11C122.7,107.46,122.18,107.27,121.8,106.73Z" transform="translate(-25.12 -38.43)"/><path fill="#14fdfd" class="cls-3" d="M89.57,122.47c.12,7.74.43,11.36.54,19.14,0,1.8,4.09,2.32,5.36,1.47a1,1,0,0,0,.5-.79,1.35,1.35,0,0,0-.52-.95,3.55,3.55,0,0,0-1.27-.66,4.25,4.25,0,0,0-1.52-.18,2.61,2.61,0,0,0-1.33.39c-.1-7.11-.35-10-.45-17.11C90.48,123.2,90,123,89.57,122.47Z" transform="translate(-25.12 -38.43)"/><path fill="#14fdfd" class="cls-3" d="M75.33,97c.12,7.74.43,11.36.54,19.13,0,1.81,4.09,2.33,5.36,1.48a1,1,0,0,0,.5-.79,1.32,1.32,0,0,0-.52-1,3.55,3.55,0,0,0-1.27-.66,4.47,4.47,0,0,0-1.52-.19,2.61,2.61,0,0,0-1.33.4c-.1-7.11-.35-10-.45-17.11C76.24,97.72,75.72,97.52,75.33,97Z" transform="translate(-25.12 -38.43)"/><path fill="#14fdfd" class="cls-3" d="M58.1,97c.11,7.74.42,11.36.53,19.13,0,1.81,4.09,2.33,5.37,1.48a1.07,1.07,0,0,0,.5-.79,1.33,1.33,0,0,0-.53-1,3.47,3.47,0,0,0-1.27-.66,4.44,4.44,0,0,0-1.52-.19,2.64,2.64,0,0,0-1.33.4c-.1-7.11-.34-10-.44-17.11C59,97.72,58.48,97.52,58.1,97Z" transform="translate(-25.12 -38.43)"/><path fill="#14fdfd" class="cls-3" d="M249.76,106.91c-1.06,13.33-2,19.54-3.07,32.94-.25,3.11-7.32,3.56-9.43,1.94a1.8,1.8,0,0,1-.77-1.41,2.29,2.29,0,0,1,1-1.58,5.8,5.8,0,0,1,2.25-1,7.27,7.27,0,0,1,2.65-.16,4.74,4.74,0,0,1,2.26.83c1-12.26,1.72-17.28,2.69-29.46C248.11,108.06,249,107.79,249.76,106.91Z" transform="translate(-25.12 -38.43)"/><path fill="#14fdfd" class="cls-3" d="M402.46,106.77q-.37,9.7-.72,19-.33,9-.66,17.71l1-.38a13,13,0,0,1,1.1-4.27,26.6,26.6,0,0,1,2.54-4,39.14,39.14,0,0,0,2.64-4,30.58,30.58,0,0,0,2.12-4.5,15.85,15.85,0,0,0,.89-4.59,19.25,19.25,0,0,0-.21-4,12.09,12.09,0,0,0,1.08-5,21.34,21.34,0,0,0-.18-4.22,13.34,13.34,0,0,0-1-3.75c-.18,0-.36,0-.54,0a21,21,0,0,1,1.14,7.28,12.36,12.36,0,0,1-1.5,5.33,15.6,15.6,0,0,1-4.06,4.63c-.26.22-.64.58-1.16,1.1s-.93.94-1.22,1.2a5.66,5.66,0,0,1-.93.75c.14-3.47.27-7,.42-10.54s.28-7.27.43-11a8.12,8.12,0,0,0-1-4.31,9.9,9.9,0,0,0-3-3.39,8.82,8.82,0,0,0-4-1.68,4.76,4.76,0,0,0-3.46.71,4.11,4.11,0,0,0-1.65,3.3,9,9,0,0,0,1.47,5,10.8,10.8,0,0,0,3.61,3.6,7.47,7.47,0,0,0,4,1.25,3.93,3.93,0,0,0,3-1.2Zm.13,28a12.45,12.45,0,0,1,1.49-5.53,51.34,51.34,0,0,1,3.72-5.73,26.06,26.06,0,0,0,2.86-4.58,12.16,12.16,0,0,1,0,1.82,13.69,13.69,0,0,1-.85,4.13A18.06,18.06,0,0,1,408,128.5a30.56,30.56,0,0,1-2.46,3.21C404.61,132.73,403.63,133.73,402.59,134.72Z" transform="translate(-25.12 -38.43)"/><path fill="#14fdfd" class="cls-3" d="M226.64,124.9c-.12,3-.23,5.94-.33,8.8s-.21,5.54-.31,8.21l.45-.17a6,6,0,0,1,.51-2,12.26,12.26,0,0,1,1.18-1.85,17.49,17.49,0,0,0,1.22-1.87,13.75,13.75,0,0,0,1-2.09,7.39,7.39,0,0,0,.41-2.13,9.27,9.27,0,0,0-.1-1.88,5.44,5.44,0,0,0,.5-2.29,9.9,9.9,0,0,0-.08-2,6.14,6.14,0,0,0-.47-1.74h-.25a9.78,9.78,0,0,1,.53,3.38,5.61,5.61,0,0,1-.7,2.47,7.17,7.17,0,0,1-1.88,2.15q-.18.15-.54.51l-.56.56a2.51,2.51,0,0,1-.44.35c.07-1.61.13-3.24.2-4.89s.13-3.37.2-5.09a3.74,3.74,0,0,0-.47-2,4.52,4.52,0,0,0-1.41-1.57,4.07,4.07,0,0,0-1.86-.78,2.25,2.25,0,0,0-1.6.33,1.92,1.92,0,0,0-.77,1.53,4.1,4.1,0,0,0,.69,2.31,4.88,4.88,0,0,0,1.67,1.68,3.56,3.56,0,0,0,1.84.58,1.86,1.86,0,0,0,1.38-.56Zm.06,13a5.88,5.88,0,0,1,.69-2.56,24.8,24.8,0,0,1,1.73-2.66,11.94,11.94,0,0,0,1.32-2.12,4.66,4.66,0,0,1,0,.84,6.19,6.19,0,0,1-.39,1.92,8.25,8.25,0,0,1-.87,1.7,13,13,0,0,1-1.14,1.49C227.64,136.94,227.18,137.41,226.7,137.86Z" transform="translate(-25.12 -38.43)"/><path fill="#14fdfd" class="cls-3" d="M189.61,118c-.12,3-.23,5.94-.33,8.8s-.21,5.54-.31,8.22l.45-.18a6,6,0,0,1,.51-2,12.26,12.26,0,0,1,1.18-1.85,17.49,17.49,0,0,0,1.22-1.87,13.75,13.75,0,0,0,1-2.09,7.39,7.39,0,0,0,.41-2.13,8.6,8.6,0,0,0-.1-1.88,5.44,5.44,0,0,0,.5-2.29,9.9,9.9,0,0,0-.08-2,6.14,6.14,0,0,0-.47-1.74h-.25a9.78,9.78,0,0,1,.53,3.38,5.74,5.74,0,0,1-.69,2.47,7.34,7.34,0,0,1-1.89,2.15q-.18.15-.54.51l-.56.56a2.86,2.86,0,0,1-.43.35c.06-1.61.12-3.24.19-4.89s.13-3.37.2-5.09a3.66,3.66,0,0,0-.47-2,4.69,4.69,0,0,0-1.4-1.57,4.16,4.16,0,0,0-1.86-.78,2.27,2.27,0,0,0-1.61.33A1.87,1.87,0,0,0,184,114a4.09,4.09,0,0,0,.68,2.31,5,5,0,0,0,1.67,1.68,3.56,3.56,0,0,0,1.84.58,1.86,1.86,0,0,0,1.38-.56Zm.06,13a5.88,5.88,0,0,1,.69-2.56,24.8,24.8,0,0,1,1.73-2.66,12.83,12.83,0,0,0,1.33-2.12,7.72,7.72,0,0,1,0,.84,6.5,6.5,0,0,1-.4,1.92,8.74,8.74,0,0,1-.86,1.7A13.1,13.1,0,0,1,191,129.6C190.61,130.07,190.15,130.54,189.67,131Z" transform="translate(-25.12 -38.43)"/><path fill="#14fdfd" class="cls-3" d="M102.18,100.19q-.18,4.5-.34,8.8t-.3,8.21L102,117a6,6,0,0,1,.51-2,12.26,12.26,0,0,1,1.18-1.85,17.5,17.5,0,0,0,1.22-1.88,13.12,13.12,0,0,0,1-2.08,7.07,7.07,0,0,0,.42-2.13,9.24,9.24,0,0,0-.1-1.88,5.53,5.53,0,0,0,.5-2.3,9.93,9.93,0,0,0-.08-2,6.16,6.16,0,0,0-.47-1.73h-.25a9.78,9.78,0,0,1,.53,3.38,5.61,5.61,0,0,1-.7,2.47,7.29,7.29,0,0,1-1.88,2.15q-.18.15-.54.51c-.24.25-.43.44-.56.56a2.87,2.87,0,0,1-.44.34c.07-1.61.13-3.24.2-4.89s.13-3.37.2-5.08a3.74,3.74,0,0,0-.47-2,4.52,4.52,0,0,0-1.41-1.57A4,4,0,0,0,99,94.32a2.15,2.15,0,0,0-1.6.33,1.89,1.89,0,0,0-.77,1.53,4.17,4.17,0,0,0,.68,2.31A5.09,5.09,0,0,0,99,100.17a3.42,3.42,0,0,0,1.83.57,1.82,1.82,0,0,0,1.39-.55Zm.06,13a5.81,5.81,0,0,1,.69-2.56,23.34,23.34,0,0,1,1.73-2.66A11.92,11.92,0,0,0,106,105.8a6,6,0,0,1,0,.85,6.19,6.19,0,0,1-.39,1.92,8.25,8.25,0,0,1-.87,1.7,13,13,0,0,1-1.14,1.49C103.17,112.23,102.72,112.69,102.24,113.15Z" transform="translate(-25.12 -38.43)"/><path fill="#14fdfd" class="cls-3" d="M43.86,104c-.06,2-.11,3.89-.16,5.76s-.09,3.63-.14,5.38l.28-.11a4.13,4.13,0,0,1,.31-1.3,8.57,8.57,0,0,1,.73-1.2,10.7,10.7,0,0,0,.76-1.22,8.22,8.22,0,0,0,.61-1.36,5.37,5.37,0,0,0,.25-1.39,6.62,6.62,0,0,0-.08-1.24,3.59,3.59,0,0,0,.3-1.49,7,7,0,0,0-.06-1.29,4.13,4.13,0,0,0-.31-1.14H46.2a7,7,0,0,1,.35,2.22,4,4,0,0,1-.42,1.62A4.56,4.56,0,0,1,45,108.58l-.33.33c-.15.16-.27.29-.35.36a2.76,2.76,0,0,1-.27.23c0-1,0-2.12.09-3.2s.06-2.21.09-3.33a2.72,2.72,0,0,0-.3-1.32,3.19,3.19,0,0,0-.9-1,2.64,2.64,0,0,0-1.18-.53,1.38,1.38,0,0,0-1,.21,1.23,1.23,0,0,0-.47,1,2.93,2.93,0,0,0,.44,1.52,3.45,3.45,0,0,0,1.07,1.11,2.15,2.15,0,0,0,1.16.38,1.09,1.09,0,0,0,.87-.35Zm.12,8.49a3.71,3.71,0,0,1,.41-1.67,15.27,15.27,0,0,1,1.08-1.73,7.72,7.72,0,0,0,.82-1.39,5.09,5.09,0,0,1,0,.56,4.4,4.4,0,0,1-.24,1.25,5.68,5.68,0,0,1-.53,1.11,8.63,8.63,0,0,1-.71,1Q44.43,112,44,112.45Z" transform="translate(-25.12 -38.43)"/><path fill="#14fdfd" class="cls-3" d="M76.4,134.43q-.08,2.94-.15,5.76c0,1.83-.1,3.63-.14,5.38l.28-.11a4.06,4.06,0,0,1,.31-1.3,8,8,0,0,1,.73-1.2,12.34,12.34,0,0,0,.76-1.22,9.63,9.63,0,0,0,.61-1.36A5,5,0,0,0,79,139a5.85,5.85,0,0,0-.07-1.24,3.78,3.78,0,0,0,.3-1.5,6.9,6.9,0,0,0-.06-1.28,4.13,4.13,0,0,0-.31-1.14h-.16A6.75,6.75,0,0,1,79.1,136a3.92,3.92,0,0,1-.42,1.61,4.62,4.62,0,0,1-1.18,1.4q-.1.09-.33.33l-.36.36a1.49,1.49,0,0,1-.27.23l.09-3.21c0-1.09.07-2.2.1-3.33a2.61,2.61,0,0,0-.31-1.31,3.09,3.09,0,0,0-.89-1,2.62,2.62,0,0,0-1.18-.52,1.32,1.32,0,0,0-1,.21,1.23,1.23,0,0,0-.47,1,2.81,2.81,0,0,0,.44,1.51,3.35,3.35,0,0,0,1.07,1.11,2.14,2.14,0,0,0,1.16.39,1.09,1.09,0,0,0,.86-.35Zm.12,8.49a3.94,3.94,0,0,1,.42-1.68A16.58,16.58,0,0,1,78,139.51a8.36,8.36,0,0,0,.83-1.38,5,5,0,0,1,0,.55,4.4,4.4,0,0,1-.24,1.26,5.59,5.59,0,0,1-.53,1.1,9,9,0,0,1-.71,1A11.92,11.92,0,0,1,76.52,142.92Z" transform="translate(-25.12 -38.43)"/><path fill="#14fdfd" class="cls-3" d="M272.68,152.27q-.07,3-.15,5.76c0,1.83-.1,3.63-.15,5.38l.29-.11A3.88,3.88,0,0,1,273,162a7.7,7.7,0,0,1,.73-1.2,11.28,11.28,0,0,0,.76-1.22,9,9,0,0,0,.6-1.36,5,5,0,0,0,.25-1.39,6.44,6.44,0,0,0-.07-1.23,3.86,3.86,0,0,0,.3-1.5,7,7,0,0,0-.07-1.29,4.51,4.51,0,0,0-.3-1.14H275a6.75,6.75,0,0,1,.35,2.22,3.67,3.67,0,0,1-.42,1.62,4.52,4.52,0,0,1-1.17,1.39l-.34.33c-.15.16-.27.29-.35.36a1.18,1.18,0,0,1-.27.23c0-1.06.06-2.12.09-3.2s.06-2.21.1-3.33a2.62,2.62,0,0,0-.31-1.32,3.21,3.21,0,0,0-.9-1,2.52,2.52,0,0,0-1.17-.51,1.31,1.31,0,0,0-1,.2,1.23,1.23,0,0,0-.47,1,2.74,2.74,0,0,0,.44,1.52,3.32,3.32,0,0,0,1.06,1.11,2.09,2.09,0,0,0,1.16.38,1.09,1.09,0,0,0,.87-.35Zm.12,8.49a3.85,3.85,0,0,1,.42-1.67,16.58,16.58,0,0,1,1.07-1.73,7.45,7.45,0,0,0,.82-1.39,3.43,3.43,0,0,1,0,.56,4.06,4.06,0,0,1-.23,1.25,5.19,5.19,0,0,1-.54,1.11,8.63,8.63,0,0,1-.71,1C273.38,160.16,273.1,160.47,272.8,160.76Z" transform="translate(-25.12 -38.43)"/><path fill="#14fdfd" class="cls-3" d="M333.93,133.52q-.07,2.94-.15,5.76c0,1.83-.1,3.63-.15,5.38l.29-.11a3.81,3.81,0,0,1,.31-1.3,7.26,7.26,0,0,1,.73-1.2,12.34,12.34,0,0,0,.76-1.22,9.48,9.48,0,0,0,.6-1.36,5,5,0,0,0,.25-1.39,6.59,6.59,0,0,0-.07-1.24,3.78,3.78,0,0,0,.3-1.5,6.15,6.15,0,0,0-.07-1.28,4.51,4.51,0,0,0-.3-1.14h-.16a6.46,6.46,0,0,1,.35,2.22,3.63,3.63,0,0,1-.42,1.61,4.44,4.44,0,0,1-1.17,1.4,3.14,3.14,0,0,0-.34.33l-.35.36a2,2,0,0,1-.27.23q0-1.59.09-3.21c0-1.09.06-2.2.1-3.33a2.61,2.61,0,0,0-.31-1.31,3.11,3.11,0,0,0-.9-1,2.54,2.54,0,0,0-1.17-.52,1.31,1.31,0,0,0-1,.21,1.23,1.23,0,0,0-.47,1,2.74,2.74,0,0,0,.44,1.52,3.23,3.23,0,0,0,1.06,1.11,2.2,2.2,0,0,0,1.16.39,1.12,1.12,0,0,0,.87-.35Zm.12,8.49a3.94,3.94,0,0,1,.42-1.68,16.58,16.58,0,0,1,1.07-1.73,7.47,7.47,0,0,0,.82-1.38,3.33,3.33,0,0,1,0,.55,4.07,4.07,0,0,1-.23,1.26,5.11,5.11,0,0,1-.54,1.1,7.8,7.8,0,0,1-.71,1C334.63,141.41,334.35,141.71,334.05,142Z" transform="translate(-25.12 -38.43)"/><path fill="#14fdfd" class="cls-3" d="M435.62,136.82c-.09,3.19-.18,6.32-.26,9.36s-.15,5.9-.23,8.75l.46-.18a7,7,0,0,1,.5-2.11,13.47,13.47,0,0,1,1.19-1.95,17.62,17.62,0,0,0,1.24-2,14.07,14.07,0,0,0,1-2.21,7.9,7.9,0,0,0,.4-2.26,9.74,9.74,0,0,0-.11-2,6.2,6.2,0,0,0,.49-2.44,11.32,11.32,0,0,0-.11-2.09,6.84,6.84,0,0,0-.5-1.85h-.25a11,11,0,0,1,.57,3.6,6.25,6.25,0,0,1-.68,2.63,7.48,7.48,0,0,1-1.91,2.26c-.12.11-.3.28-.55.54s-.44.46-.57.59a2.61,2.61,0,0,1-.44.37c.05-1.72.1-3.45.15-5.21s.1-3.59.15-5.41a4.29,4.29,0,0,0-.49-2.14,5.13,5.13,0,0,0-1.46-1.68,4.16,4.16,0,0,0-1.91-.85,2.19,2.19,0,0,0-1.64.33,2,2,0,0,0-.77,1.63,4.68,4.68,0,0,0,.72,2.47,5.4,5.4,0,0,0,1.73,1.79,3.48,3.48,0,0,0,1.89.64,1.8,1.8,0,0,0,1.41-.58Zm.19,13.8a6.32,6.32,0,0,1,.68-2.72,25.76,25.76,0,0,1,1.74-2.81,12.58,12.58,0,0,0,1.34-2.25,8.74,8.74,0,0,1,0,.9,7,7,0,0,1-.39,2,8.56,8.56,0,0,1-.87,1.8,12.19,12.19,0,0,1-1.15,1.57C436.76,149.65,436.3,150.14,435.81,150.62Z" transform="translate(-25.12 -38.43)"/><path fill="#14fdfd" class="cls-3" d="M646.83,209q-.27-12.14-.52-23.71c-.16-7.53-.31-14.92-.47-22.11l1.2.49a16.51,16.51,0,0,0,1.29,5.35,35.15,35.15,0,0,0,3.09,5,45.7,45.7,0,0,1,3.23,5.09,37.52,37.52,0,0,1,2.55,5.66,19.67,19.67,0,0,1,1,5.74,25.09,25.09,0,0,1-.34,5.06,15.24,15.24,0,0,1,1.25,6.18,29.24,29.24,0,0,1-.3,5.28,17.26,17.26,0,0,1-1.34,4.66h-.67a26.84,26.84,0,0,0,1.56-9.08,15.43,15.43,0,0,0-1.77-6.67,19.52,19.52,0,0,0-5-5.87,18.45,18.45,0,0,1-1.44-1.4c-.64-.67-1.14-1.18-1.49-1.52a7.54,7.54,0,0,0-1.15-.95q.16,6.51.31,13.17c.11,4.49.22,9.07.33,13.7a10,10,0,0,1-1.35,5.35,12.51,12.51,0,0,1-3.84,4.18,11.33,11.33,0,0,1-5,2,6,6,0,0,1-4.3-1,5.15,5.15,0,0,1-2-4.16,11,11,0,0,1,1.93-6.19,13.47,13.47,0,0,1,4.58-4.44,9.39,9.39,0,0,1,5-1.48,4.9,4.9,0,0,1,3.7,1.57Zm.72-34.89A15.67,15.67,0,0,0,649.3,181a66,66,0,0,0,4.54,7.23,31.72,31.72,0,0,1,3.47,5.77,16.84,16.84,0,0,0,.07-2.28,17.36,17.36,0,0,0-1-5.17,22.73,22.73,0,0,0-2.25-4.62,36.28,36.28,0,0,0-3-4.05C650,176.6,648.83,175.33,647.55,174.08Z" transform="translate(-25.12 -38.43)"/><path fill="#14fdfd" class="cls-3" d="M474.84,110q-.27-12.14-.52-23.7-.24-11.31-.47-22.12l1.2.49a16.26,16.26,0,0,0,1.29,5.36,35.14,35.14,0,0,0,3.09,5,47.61,47.61,0,0,1,3.23,5.09,37.92,37.92,0,0,1,2.54,5.67,20,20,0,0,1,1,5.74,25,25,0,0,1-.34,5,15.15,15.15,0,0,1,1.24,6.19,28.2,28.2,0,0,1-.29,5.27,17.33,17.33,0,0,1-1.35,4.67h-.66a26.55,26.55,0,0,0,1.55-9.08A15.24,15.24,0,0,0,484.62,97a19.81,19.81,0,0,0-5-5.87,18.45,18.45,0,0,1-1.44-1.4c-.64-.67-1.14-1.19-1.49-1.52a7,7,0,0,0-1.15-.95q.15,6.49.31,13.16c.11,4.5.22,9.08.33,13.7a10.12,10.12,0,0,1-1.35,5.36,12.53,12.53,0,0,1-3.85,4.18,11.25,11.25,0,0,1-5,2,5.94,5.94,0,0,1-4.3-1,5.14,5.14,0,0,1-2-4.15,11.26,11.26,0,0,1,1.93-6.2,13.62,13.62,0,0,1,4.58-4.43,9.45,9.45,0,0,1,5-1.48,4.89,4.89,0,0,1,3.7,1.56Zm.72-34.88a15.72,15.72,0,0,0,1.74,6.92,68.17,68.17,0,0,0,4.54,7.23,32,32,0,0,1,3.48,5.77,16.64,16.64,0,0,0,.07-2.27,17.3,17.3,0,0,0-1-5.17A22.48,22.48,0,0,0,482.15,83a37.43,37.43,0,0,0-3-4.06Q477.48,77,475.56,75.16Z" transform="translate(-25.12 -38.43)"/><path fill="#14fdfd" class="cls-3" d="M561.35,58.8c3,6.13,3,6.3,5.95,12.35S573,83,575.89,89a5.12,5.12,0,0,1,.09,4.27,12.78,12.78,0,0,1-3.47,4.3,13.76,13.76,0,0,1-4.37,2.59,7.58,7.58,0,0,1-4,.4,4.07,4.07,0,0,1-2.85-2,5.31,5.31,0,0,1,0-4,10.89,10.89,0,0,1,2.68-4.1,12.51,12.51,0,0,1,4.2-2.86A8.26,8.26,0,0,1,572.7,87c-2.72-5.64-5.48-11.31-8.23-17S559,58.61,556.16,52.79c19.77-5.61,32.39-9.62,50-14.36,3.36,7.38,6.72,14.73,10,22S622.73,74.85,626,82a5.63,5.63,0,0,1-.29,5.09,19.74,19.74,0,0,1-5,5.56,21.14,21.14,0,0,1-5.86,3.28,10.79,10.79,0,0,1-5.22.66,4.58,4.58,0,0,1-3.48-2.17,5.93,5.93,0,0,1,.32-4.75,15.14,15.14,0,0,1,3.78-5,18.82,18.82,0,0,1,5.68-3.61,11.86,11.86,0,0,1,6-.92l-8.79-19.25c-3-6.48-3.81-8.27-6.82-14.85C591.84,49.64,578.88,53.77,561.35,58.8Z" transform="translate(-25.12 -38.43)"/><path fill="#14fdfd" class="cls-3" d="M667.33,118.77c.75,4.45.76,4.58,1.51,9L671,140.67a3.35,3.35,0,0,1-.73,2.74,8.44,8.44,0,0,1-3,2.11,9.2,9.2,0,0,1-3.26.84,5.08,5.08,0,0,1-2.66-.49,2.68,2.68,0,0,1-1.45-1.79,3.55,3.55,0,0,1,.71-2.57,7.29,7.29,0,0,1,2.46-2.11,8.44,8.44,0,0,1,3.21-1.06,5.49,5.49,0,0,1,3.05.51q-1.05-6.15-2.11-12.37L665.12,114c13.64.07,22.42-.16,34.51.06.78,5.33,1.57,10.63,2.33,15.88s1.53,10.4,2.28,15.54a3.71,3.71,0,0,1-1.12,3.19,13,13,0,0,1-4.23,2.61,13.93,13.93,0,0,1-4.34,1,7.1,7.1,0,0,1-3.45-.53,3.06,3.06,0,0,1-1.82-2,3.93,3.93,0,0,1,1.08-3,10.08,10.08,0,0,1,3.33-2.48A12.68,12.68,0,0,1,698,143a8,8,0,0,1,4,.52q-1-6.89-2-13.88c-.7-4.68-.91-6-1.62-10.73C688.45,118.55,679.42,118.79,667.33,118.77Z" transform="translate(-25.12 -38.43)"/><path fill="#14fdfd" d="M390.1,156.67v-.06l-.33.08-.68,0v.13l-35.82,8.62v.07h-.38l1.51,38c-1.61-.95-4.26-.75-6.7.65-3.11,1.81-4.68,4.93-3.49,7s4.66,2.22,7.77.42c2.27-1.32,3.72-3.33,3.87-5.11h.1l-1.06-27,34.75-8.36.94,23.57c-1.61-.94-4.26-.75-6.7.65-3.11,1.81-4.68,4.93-3.5,7s4.67,2.22,7.79.41c2.26-1.31,3.7-3.32,3.86-5.11h.1l-1.62-41Zm-35.43,16.82-.09-2.27,34.75-8.36.1,2.26Z" transform="translate(-25.12 -38.43)"/><path fill="#14fdfd" d="M639.43,119.81a5.34,5.34,0,0,0-3.17-.94,9.74,9.74,0,0,0-4.4,1.1,10.29,10.29,0,0,0-3,2.28c-.17.2-.34.4-.49.61a4.13,4.13,0,0,0,3.56,7,9.8,9.8,0,0,0,4.39-1.1,11.79,11.79,0,0,0,1.16-.68l.66-.48a6.68,6.68,0,0,0,2.81-4.81h0l0-5.53v-1l.11-25.35h-1.56l-.1,24.07v4.86Zm-2.72,6.91a7.49,7.49,0,0,1-.73.45c-.12.08-.24.14-.37.21a8.41,8.41,0,0,1-3.69.94A3.11,3.11,0,0,1,629,127c-.48-.94-.13-2.19.78-3.35a7.08,7.08,0,0,1,.52-.59,8.62,8.62,0,0,1,2.29-1.65,8.21,8.21,0,0,1,3.68-.94,3.13,3.13,0,0,1,3,1.36C639.91,123.18,638.79,125.27,636.71,126.72Z" transform="translate(-25.12 -38.43)"/><path fill="#14fdfd" d="M534.64,96.11l.36.75.08.17-.31,0a6.23,6.23,0,0,0-1.72,0,8.11,8.11,0,0,0-2,.64,11.83,11.83,0,0,0-3.53,2.63c-.29.31-.56.63-.83,1a9.1,9.1,0,0,0-.63.9c-2.51,3.81-2.59,8.08-.07,10,1.54,1.19,3.75,1.26,6.06.17a12.07,12.07,0,0,0,4.35-3.59c2.44-3.15,3.13-6.75,2-9.19h0l-1.72-3.68-.35-.74-6.53-13.9-.36-.77-8-16.92-1.75.83,8,17,.37.78Zm.19,11.48a10.27,10.27,0,0,1-3.65,3c-1.62.76-3.1.78-4,0-1.81-1.4-1.33-5.17,1-8.22a10.36,10.36,0,0,1,3.65-3c1.62-.77,3.1-.78,4,0C537.68,100.77,537.2,104.53,534.83,107.59Z" transform="translate(-25.12 -38.43)"/><path fill="#14fdfd" d="M562.1,133.73l-1.94.65.9,2.71.25.75,4.85,14.51.25.74,4.84,14.49.25.75.91,2.73c-2.31-.4-5.38.8-7.84,3.31-3.32,3.38-4.26,7.84-2.1,10s6.6,1.09,9.92-2.29c2.63-2.69,3.74-6,3-8.37h0l-2.09-6.23-.24-.74-4.83-14.47-.25-.73L563.19,137l-.25-.74Z" transform="translate(-25.12 -38.43)"/><path fill="#14fdfd" d="M456.7,175.3l.37,1,2,5.42c-1.58-.23-3.66.66-5.29,2.43-2.19,2.38-2.74,5.44-1.22,6.84h0a2.62,2.62,0,0,0,.93.53c1.63.53,4-.35,5.8-2.31a7.82,7.82,0,0,0,1.94-3.57,4.65,4.65,0,0,0,.11-1.32,3.13,3.13,0,0,0-.17-.89h0l-2.92-7.94-.37-1-3.24-8.77-.37-1-3.05-8.26-1.31.48,3.15,8.56.38,1Z" transform="translate(-25.12 -38.43)"/><path fill="#14fdfd" d="M316,159.62l.29.78,1.55,4.22a5.08,5.08,0,0,0-4.11,1.89c-1.71,1.85-2.14,4.24-1,5.33h0a1.91,1.91,0,0,0,.73.42c1.27.41,3.11-.27,4.51-1.8a6.07,6.07,0,0,0,1.52-2.78,3.33,3.33,0,0,0,.08-1,2.22,2.22,0,0,0-.13-.69h0l-2.28-6.18L317,159l-2.52-6.83-.29-.81-2.37-6.43-1,.38,2.45,6.66.29.8Z" transform="translate(-25.12 -38.43)"/><path fill="#14fdfd" d="M604.89,177.4a10.89,10.89,0,0,0-.27-2l-3.06-13.82c-.06-.24-.11-.48-.16-.72l-1.62-7.32-.1-.44a2.45,2.45,0,0,1,.32,0c.57.13,1.15.25,1.72.41a15.73,15.73,0,0,1,4.37,1.84,9.82,9.82,0,0,1,3,3c.12.18.23.37.34.56a.2.2,0,0,0,0,.08,11.94,11.94,0,0,1,1.31,5.14,25.81,25.81,0,0,1-.6,6.44c-.07.35-.13.7-.2,1.06l.14.06a.88.88,0,0,1,0-.17c.38-1,.81-2,1.14-3a14,14,0,0,0,.67-5.19c0-.28,0-.56,0-.85-.15-.66-.3-1.33-.44-2a2.37,2.37,0,0,1-.17-.36,10.46,10.46,0,0,0-.64-1.45c-.11-.22-.24-.43-.37-.64s-.27-.43-.42-.64a15.46,15.46,0,0,0-3.29-3.32c-1.35-1-2.71-2.05-4-3.18a36.47,36.47,0,0,1-4.17-4.44l-.48-.62c-.37-.48-.74-1-1.09-1.46l-.58-.78-.1.05.57,2.54c0,.24.1.48.16.71q1.59,7.2,3.19,14.4c.05.25.11.49.16.73l2.76,12.42-.23,0a6.88,6.88,0,0,0-4,.57,8.65,8.65,0,0,0-4.72,5.86,15.9,15.9,0,0,0-.24,1.82l.06.29c0,.24.11.49.16.73a.19.19,0,0,1,0,.08,5.11,5.11,0,0,0,.82.91,3.76,3.76,0,0,0,2.25.58h.85l1.67-.37c.5-.24,1-.47,1.5-.74a6.85,6.85,0,0,0,3.54-4.92,7.37,7.37,0,0,0,.13-1.14C604.9,177.91,604.9,177.66,604.89,177.4Z" transform="translate(-25.12 -38.43)"/></g></g></g></svg>