<?xml version="1.0" encoding="iso-8859-1"?>
<!-- Generator: Adobe Illustrator 16.0.0, SVG Export Plug-In . SVG Version: 6.00 Build 0)  -->
<!DOCTYPE svg PUBLIC "-//W3C//DTD SVG 1.1//EN" "http://www.w3.org/Graphics/SVG/1.1/DTD/svg11.dtd">
<svg version="1.1" id="Capa_1" xmlns="http://www.w3.org/2000/svg" xmlns:xlink="http://www.w3.org/1999/xlink" x="0px" y="0px"
	 width="33px" height="33px" viewBox="0 0 444.731 444.731" style="enable-background:new 0 0 444.731 444.731;"
	 xml:space="preserve">
<g>
	<g>
		<path fill="#14fdfd" d="M144.05,318.396c5.278,0,13.32,2.037,17.949,4.581c13.76,7.554,41.865,23.112,83.949,46.445
			c10.213,5.67,20.158,8.549,29.559,8.549c24.834,0,40.879-19.632,40.879-50.013V114.257c0-29.29-14.018-47.497-36.596-47.497
			c-9.801,0-20.693,3.806-31.508,10.997l-87.134,57.891c-4.399,2.926-12.25,5.288-17.528,5.288H81.262
			C36.453,140.936,0,180.735,0,229.647c0,48.932,36.453,88.74,81.262,88.74h62.788V318.396z M147.961,155.28
			c5.278,0,13.129-2.372,17.528-5.297l90.739-60.301c8.462-5.613,16.61-8.587,23.571-8.587c13.934,0,22.252,12.393,22.252,33.153
			V327.94c0,22.003-10.164,35.668-26.535,35.668c-6.934,0-14.526-2.267-22.597-6.751c-95.271-52.813-95.271-52.813-97.557-52.813
			h-74.09c-36.902,0-66.918-33.373-66.918-74.396c0-41.004,30.017-74.368,66.918-74.368H147.961L147.961,155.28z"/>
		<path fill="#14fdfd" d="M434.826,167.921c-4.629-3.796-10.662-5.891-16.992-5.891c-8.291,0-16.209,3.605-21.182,9.629c0,0-1.443,1.76-3.232,3.94
			c-1.787,2.171-4.676,2.171-6.453,0l-3.223-3.94c-4.973-6.034-12.871-9.639-21.162-9.639c-6.35,0-12.385,2.104-17.012,5.91
			c-6.293,5.164-9.898,12.804-9.898,20.951c0,6.245,2.191,12.364,6.168,17.212l7.191,8.75c3.357,4.083,3.357,10.69,0,14.774
			l-7.211,8.769c-3.957,4.839-6.148,10.949-6.148,17.193c0,8.138,3.605,15.778,9.898,20.971c4.838,3.968,10.949,6.158,17.203,6.158
			c8.166,0,15.797-3.605,20.971-9.897c0,0,1.443-1.76,3.223-3.939c1.777-2.171,4.676-2.181,6.463,0l3.242,3.93
			c4.953,6.044,12.871,9.648,21.162,9.648c6.33,0,12.363-2.104,16.992-5.899c11.561-9.496,13.225-26.622,3.738-38.164l-7.189-8.759
			c-3.348-4.084-3.348-10.701,0-14.775l7.189-8.75c4.59-5.594,6.742-12.642,6.035-19.861
			C443.9,179.033,440.43,172.53,434.826,167.921z M412.805,214.845c-3.357,4.083-3.348,10.7,0,14.774l14.678,17.853
			c2.17,2.63,3.156,5.958,2.84,9.362c-0.334,3.395-1.979,6.464-4.619,8.615c-5,4.15-13.855,3.232-17.967-1.769l-11.484-13.952
			c-3.357-4.083-8.799-4.073-12.145,0l-11.467,13.961c-4.312,5.24-12.756,6.044-17.967,1.779c-2.965-2.458-4.668-6.062-4.668-9.897
			c0-2.983,0.996-5.775,2.898-8.1l14.678-17.862c3.357-4.084,3.348-10.691,0-14.774l-14.678-17.844
			c-1.885-2.324-2.898-5.135-2.898-8.118c0-3.835,1.703-7.44,4.648-9.869c2.314-1.903,5.115-2.917,8.109-2.917
			c3.844,0,7.449,1.702,9.877,4.657l11.467,13.971c3.346,4.083,8.787,4.083,12.145,0l11.484-13.971
			c4.072-4.972,12.975-5.862,17.986-1.759c2.629,2.17,4.256,5.221,4.6,8.616c0.334,3.395-0.689,6.722-2.859,9.352L412.805,214.845z"
			/>
	</g>
</g>
<g>
</g>
<g>
</g>
<g>
</g>
<g>
</g>
<g>
</g>
<g>
</g>
<g>
</g>
<g>
</g>
<g>
</g>
<g>
</g>
<g>
</g>
<g>
</g>
<g>
</g>
<g>
</g>
<g>
</g>
</svg>
